<svg xmlns="http://www.w3.org/2000/svg" height="16" width="16" version="1.1">
	<path d="m14.25 4q0.3125 0 0.53125 0.21875 0.219 0.2187 0.219 0.5312v9.5q0 0.312-0.219 0.531t-0.531 0.219h-7.5q-0.3125 0-0.5312-0.219-0.2188-0.219-0.2188-0.531v-2.25h-4.25q-0.3125 0-0.53125-0.21875-0.2188-0.219-0.2188-0.531v-5.25q0-0.3125 0.1562-0.6875 0.1563-0.375 0.375-0.5937l3.1876-3.1876q0.2187-0.2187 0.5937-0.3749 0.375-0.1563 0.6875-0.1563h3.25q0.3125 0 0.53125 0.21875t0.21875 0.53121v2.5625q0.531-0.3125 1-0.3125h3.25zm-4.25 1.6641-2.3359 2.3359h2.3359v-2.3359zm-5-3-2.3359 2.3359h2.3359v-2.3359zm1.5312 5.0547 2.4687-2.4688v-3.25h-2.9999v3.2499q0 0.31255-0.21875 0.5313-0.2187 0.2188-0.5312 0.2188h-3.25v5h4v-2q0-0.3125 0.1562-0.6875 0.1563-0.375 0.375-0.5937zm7.4688 6.2812v-9h-3v3.25q0 0.31255-0.21875 0.5313t-0.53125 0.21875h-3.25v4.9999h7z"/>
</svg>
