<svg xmlns="http://www.w3.org/2000/svg" height="16" width="16" version="1.1">
	<path d="m8.4995 8.5014q0.20307 0 0.35147-0.1484t0.1484-0.35149-0.1484-0.35149-0.35147-0.1484-0.35147 0.1484-0.1484 0.35149 0.1484 0.35149 0.35147 0.1484zm2.3435-0.4999 3.959-3.1085q0.21869-0.15619 0.19526-0.43742-0.03905-0.27335-0.27336-0.3983l-0.999-0.4999q-0.10154-0.0542-0.2265-0.0542-0.13278 0-0.24212 0.063l-5.3891 3.0226-0.8592-0.5156q-0.0625-0.0315-0.0937-0.0394 0.1093-0.3827 0.0781-0.7576-0.0547-0.6014-0.4374-1.152t-1.0309-0.9646q-1.031-0.6561-2.1635-0.6561-1.0622 0-1.7339 0.6092-0.70296 0.6561-0.617 1.6167 0.0546 0.5936 0.4373 1.1482 0.3827 0.5545 1.0232 0.9685 1.031 0.65608 2.1713 0.65608 0.64826 0 1.1794-0.24211 0.070293 0.10158 0.17183 0.17185l0.9528 0.5701-0.9528 0.5702q-0.10153 0.07-0.17183 0.17185-0.53111-0.24212-1.1794-0.24212-1.1403 0-2.1713 0.65608-0.64045 0.41396-1.0232 0.96845-0.38271 0.55457-0.43738 1.1482-0.039052 0.46078 0.12106 0.88253t0.49596 0.72634q0.6639 0.616 1.7339 0.616 1.1325 0 2.1635-0.65607 0.64826-0.40618 1.031-0.96067 0.38271-0.55457 0.43738-1.156 0.031242-0.37485-0.078103-0.75757 0.031242-0.009 0.093724-0.0394l0.85914-0.51555 5.3892 3.0226q0.10934 0.063 0.24212 0.063 0.12497 0 0.2265-0.0543l0.99973-0.49989q0.23431-0.12495 0.27336-0.3983 0.02343-0.28122-0.19526-0.43741zm-5.3189 2.0307q0.35928 0.32804 0.16402 0.8435-0.1956 0.515-0.8282 0.914-0.7186 0.46-1.4996 0.46-0.57797 0-0.88257-0.28114-0.35928-0.32804-0.16402-0.8435 0.19526-0.51555 0.8279-0.91385 0.71855-0.46078 1.4996-0.46078 0.57797 0 0.88257 0.28114zm-0.6642-5.8186q0.6326 0.3984 0.8279 0.9139 0.1952 0.5154-0.164 0.8435-0.3047 0.2811-0.8826 0.2811-0.7811 0-1.4996-0.4608-0.6327-0.3983-0.8279-0.9138-0.1953-0.5155 0.164-0.8435 0.3046-0.2812 0.8826-0.2812 0.78104 0 1.4996 0.46077zm1.3902 4.7878 0.7498-0.453v0.0857q0 0.28123 0.25774 0.43741l0.1094 0.0621-0.617 0.367-0.2031-0.203q-0.023431-0.0236-0.078103-0.0857-0.054673-0.0621-0.093725-0.0937-0.01562-0.0157-0.031242-0.0271-0.01562-0.0114-0.023431-0.0192zm1.7495-1.7495 0.7498-0.2499 5.7486 4.4992-1 0.499-5.9982-3.3659v-0.8825l-1.2497-0.7498 0.0703-0.063q0.01562-0.0157 0.054673-0.0464 0.031242-0.0315 0.085914-0.0937 0.054673-0.0621 0.085915-0.0937l0.2031-0.2031zm5.4984-3.2491 1 0.4998-4.062 3.1867-1.382-1.0779q-0.0156-0.0236-0.1015-0.0542z"/>
</svg>
