<svg xmlns="http://www.w3.org/2000/svg" height="16" width="16" version="1.1">
	<path d="m7 14h7v-5h-3.25q-0.312 0-0.531-0.2187-0.219-0.2188-0.219-0.5313v-3.25h-3v9zm2-11.25v-0.5q0-0.1016-0.0742-0.1758t-0.1758-0.0742h-5.5q-0.1016 0-0.1758 0.074-0.0742 0.0744-0.0742 0.176v0.5q0 0.1016 0.0742 0.1758t0.1758 0.0742h5.5q0.1016 0 0.1758-0.074 0.0742-0.0744 0.0742-0.176zm2 5.25h2.3359l-2.336-2.3359v2.3359zm4 1v5.25q0 0.3125-0.21875 0.5313-0.219 0.219-0.531 0.219h-7.5q-0.3125 0-0.5312-0.219-0.2188-0.219-0.2188-0.531v-1.25h-4.25q-0.3125 0-0.5312-0.219-0.2188-0.219-0.2188-0.531v-10.5q0-0.3125 0.2188-0.5312 0.2187-0.2188 0.5312-0.2188h8.5q0.312 0 0.531 0.2188 0.219 0.2187 0.219 0.5312v2.5625q0.16406 0.1016 0.28125 0.2188l3.1875 3.1875q0.21875 0.2187 0.375 0.5937 0.157 0.375 0.157 0.6875z"/>
</svg>
